<svg width="512" height="512" viewBox="0 0 512 512" fill="none" xmlns="http://www.w3.org/2000/svg">
  <rect width="512" height="512" rx="128" fill="#991B1B"/>
  <g transform="translate(128, 128)">
    <!-- Wrench -->
    <path d="M256 96c-35.3 0-64 28.7-64 64s28.7 64 64 64 64-28.7 64-64-28.7-64-64-64z" fill="#FFA726"/>
    <path d="M224 160c0-17.7 14.3-32 32-32s32 14.3 32 32-14.3 32-32 32-32-14.3-32-32z" fill="#991B1B"/>
    <!-- Gear -->
    <circle cx="256" cy="256" r="48" fill="#FFA726" stroke="#991B1B" stroke-width="8"/>
    <circle cx="256" cy="256" r="24" fill="#991B1B"/>
    <!-- Gear teeth -->
    <rect x="256" y="208" width="8" height="32" fill="#FFA726"/>
    <rect x="256" y="272" width="8" height="32" fill="#FFA726"/>
    <rect x="208" y="256" width="32" height="8" fill="#FFA726"/>
    <rect x="272" y="256" width="32" height="8" fill="#FFA726"/>
  </g>
</svg> 